# xmcd
#
# Track frame offsets:
#	150
#	18058
#	42020
#	66182
#	88331
#	106990
#	127809
#	149199
#	166968
#	184352
#	203788
#	216997
#	231263
#	254911
#	270728
#	293966
#
# Disc length: 4216 seconds
#
# Revision: 0
# Processed by: cddbd v1.5.1PL0 Copyright (c) Steve Scherf et al.
# Submitted via: dBpowerAMP V4.0
#
DISCID=fc107610
DTITLE=满文军 - 望乡
DYEAR=1999
DGENRE=Country
TTITLE0=望乡
TTITLE1=牵心
TTITLE2=懂你
TTITLE3=承诺
TTITLE4=错过
TTITLE5=三心二忆
TTITLE6=海无边际
TTITLE7=梦里潮汐
TTITLE8=真心快乐
TTITLE9=想爱也难
TTITLE10=换个心情
TTITLE11=轻轻走近你
TTITLE12=岁月的眼泪
TTITLE13=陌生而熟悉
TTITLE14=让你的天空最美
TTITLE15=让你幸福在每一天
EXTD=
EXTT0=
EXTT1=
EXTT2=
EXTT3=
EXTT4=
EXTT5=
EXTT6=
EXTT7=
EXTT8=
EXTT9=
EXTT10=
EXTT11=
EXTT12=
EXTT13=
EXTT14=
EXTT15=
PLAYORDER=
